<svg xmlns="http://www.w3.org/2000/svg" xmlns:xlink="http://www.w3.org/1999/xlink" viewBox="0 0 258.46 302.5"><defs><linearGradient id="a" x1="393.26" y1="658.1" x2="644.44" y2="406.91" gradientUnits="userSpaceOnUse"><stop offset="0" stop-color="#fd267d"/><stop offset="1" stop-color="#ff7854"/></linearGradient></defs><title>TInder logo vector</title><path d="M523.57,361a2,2,0,0,0-.82-.22h-.12a2.28,2.28,0,0,0-2,2.43c7.38,47.75-2.46,99.69-60.31,119.63a1.49,1.49,0,0,1-1-.24C449.23,469,446.77,445.89,446,436.79a2.18,2.18,0,0,0-3.45-1.72c-31,17.72-59.82,59.57-59.82,100.19,0,69.66,47.51,128,129.23,128,76.55,0,129.23-60.06,129.23-128C641.23,446.63,579,387.8,523.57,361Z" transform="translate(-382.77 -360.75)" style="fill:url(#a)"/></svg>